<svg width="88" height="88" viewBox="0 0 88 88" fill="none" xmlns="http://www.w3.org/2000/svg">
<path fill-rule="evenodd" clip-rule="evenodd" d="M44 88C68.3005 88 88 68.3005 88 44C88 19.6995 68.3005 0 44 0C19.6995 0 0 19.6995 0 44C0 68.3005 19.6995 88 44 88ZM58.5211 32.5779L61.1948 27.9142L61.3473 27.6482C61.6213 27.2032 61.7584 26.7924 61.7584 26.4158C61.7584 25.5942 61.2788 25.1834 60.3196 25.1834L58.2894 25.1834H28.5448L28.5448 25.1834H25.7883C25.1032 25.1834 24.3838 25.423 23.6301 25.9023C22.8765 26.3816 22.2941 26.9635 21.883 27.6482L9.08797 49.8317C8.84817 50.2767 8.72827 50.6875 8.72827 51.0641C8.72827 51.8857 9.19074 52.2965 10.1157 52.2965L22.4483 52.2965C23.1334 52.2965 23.8528 52.0569 24.6065 51.5776C25.3944 51.0984 25.9767 50.5164 26.3536 49.8317L37.7612 30.1131L37.7612 30.113C38.1381 29.4284 38.7033 28.8464 39.4569 28.3671C40.2449 27.8879 40.9643 27.6482 41.6151 27.6482C41.6265 27.6482 41.6377 27.6483 41.6489 27.6484C41.6581 27.6485 41.6672 27.6486 41.6763 27.6488L41.6873 27.649C42.5984 27.6694 43.0539 28.0799 43.0539 28.8806C43.0539 29.2337 42.9486 29.6168 42.7378 30.03C42.7238 30.0576 42.7092 30.0852 42.6942 30.1131L41.2554 32.5779C41.0456 32.9673 40.9276 33.3305 40.9014 33.6675C40.8976 33.7156 40.8957 33.7632 40.8957 33.8103C40.8957 34.2788 41.0461 34.6138 41.3469 34.8151C41.6232 34.7702 41.9035 34.7463 42.1873 34.7463H55.9778C56.2388 34.6362 56.5042 34.4953 56.7739 34.3238C57.5619 33.8445 58.1442 33.2626 58.5211 32.5779ZM60.3196 23.1834H55.3491C51.837 21.1585 47.7624 20 43.4171 20C39.0719 20 34.9972 21.1585 31.4851 23.1834H25.7883C24.6236 23.1834 23.5356 23.5922 22.5569 24.2146C21.5726 24.8406 20.7574 25.6377 20.1684 26.6187L20.1593 26.6337L20.1506 26.6489L7.3555 48.8324L7.34103 48.8575L7.3273 48.883C6.982 49.5238 6.72827 50.2624 6.72827 51.0641C6.72827 51.8486 6.95996 52.7847 7.7469 53.4837C8.48869 54.1426 9.39944 54.2965 10.1157 54.2965H21.8535C22.5675 55.778 23.4297 57.1746 24.4207 58.4672L23.718 59.6449L23.7021 59.6717L23.687 59.6989C23.3379 60.3277 23.0759 61.062 23.0759 61.8659C23.0759 62.68 23.3384 63.6203 24.157 64.3009C24.9049 64.9227 25.8075 65.062 26.5147 65.062H32.205C35.5494 66.8396 39.3656 67.8467 43.4171 67.8467C47.4686 67.8467 51.2849 66.8396 54.6292 65.062H61.0459C62.1721 65.062 63.2313 64.663 64.1864 64.0765C65.2014 63.4741 66.0505 62.6853 66.6277 61.6771L72.3089 52.1458C72.7007 51.521 73.0147 50.7602 73.0147 49.9042C73.0147 49.3173 72.8783 48.6647 72.4954 48.0912C73.076 47.9173 73.6314 47.6519 74.1553 47.3301C75.169 46.7285 76.0173 45.9409 76.5944 44.9345L79.4602 40.1695L79.4781 40.1397L79.4949 40.1094C79.8439 39.4807 80.106 38.7463 80.106 37.9425C80.106 37.1517 79.8629 36.2184 79.0651 35.5306C78.3241 34.8917 77.4226 34.7463 76.7186 34.7463H65.5171C64.7451 32.8893 63.7458 31.1505 62.554 29.5646L63.0683 28.6675C63.4557 28.0303 63.7584 27.2666 63.7584 26.4158C63.7584 25.6088 63.5084 24.6652 62.6997 23.9725C61.9504 23.3307 61.0382 23.1834 60.3196 23.1834ZM39.9778 37.4441C40.3921 37.1995 40.7923 37.0192 41.1782 36.9032C41.5644 37.0085 41.9454 37.0427 42.2832 37.0427H54.6158C55.2132 37.0427 55.7904 36.9351 56.3431 36.7463H66.2453L76.7186 36.7463C77.6435 36.7463 78.106 37.1451 78.106 37.9425C78.106 38.308 77.9861 38.7067 77.7463 39.1387L74.8687 43.9233C74.4918 44.5879 73.9095 45.1527 73.1216 45.6179C72.3679 46.0831 71.6656 46.3157 71.0147 46.3157L58.6822 46.3157C58.6222 46.3157 58.5641 46.3141 58.5079 46.311C57.6649 46.2643 57.2434 45.8671 57.2434 45.1195C57.2434 45.0738 57.2452 45.0276 57.249 44.9809C57.2752 44.6538 57.3932 44.3013 57.6031 43.9234L59.0419 41.531C59.0503 41.5159 59.0586 41.5007 59.0667 41.4857L59.0854 41.4504C59.2962 41.0494 59.4016 40.6775 59.4016 40.3349C59.4016 40.2352 59.3944 40.1417 59.3799 40.0545C59.2787 39.444 58.8235 39.1387 58.0142 39.1387C57.9285 39.1387 57.8423 39.1423 57.7556 39.1496C57.1486 39.2005 56.5154 39.4294 55.856 39.8364C55.8332 39.8505 55.8107 39.8646 55.7882 39.8788C55.7642 39.894 55.7403 39.9094 55.7167 39.9248C55.0302 40.3726 54.4942 40.908 54.1088 41.531L44.14 58.2774C43.9002 58.7093 43.7803 59.108 43.7803 59.4735C43.7803 60.271 44.2428 60.6697 45.1677 60.6697C45.8529 60.6697 46.5723 60.4371 47.3259 59.9719C48.1138 59.5068 48.6962 58.9419 49.073 58.2774L53.3381 51.1004C53.7491 50.4358 54.3315 49.871 55.0852 49.4058C55.8388 48.9406 56.5582 48.708 57.2434 48.708H66.8619L69.5759 48.708C70.5351 48.708 71.0147 49.1067 71.0147 49.9042C71.0147 50.2697 70.8777 50.6684 70.6037 51.1004L64.8998 60.6697C64.523 61.3342 63.9406 61.8991 63.1527 62.3643C62.3991 62.8294 61.6968 63.062 61.0459 63.062H26.5147C25.5555 63.062 25.0759 62.6633 25.0759 61.8659C25.0759 61.5004 25.1958 61.1016 25.4356 60.6697L25.7819 60.0892L38.282 39.1387C38.4093 38.9143 38.558 38.7012 38.7283 38.4995C39.0306 38.1413 39.4008 37.819 39.8387 37.5325C39.8843 37.5027 39.9307 37.4732 39.9778 37.4441Z" fill="#070707"/>
</svg>
